<svg width="20" height="21" fill="none" xmlns="http://www.w3.org/2000/svg">
  <path fill-rule="evenodd" clip-rule="evenodd" d="M5.548 1.71c.93.012 1.594.71 2.433 1.592.208.217.432.455.683.705 1.216 1.217.87 2.21.59 3.006-.303.869-.565 1.619 1.006 3.19 1.572 1.572 2.321 1.31 3.19 1.004.797-.278 1.787-.627 3.005.59.248.247.481.47.698.675.886.843 1.586 1.51 1.598 2.442.009.795-.475 1.607-1.668 2.8l-.528-.358.447.436c-.264.27-.967.992-2.342 1h-.025c-2.077 0-4.785-1.653-8.048-4.915C3.31 10.6 1.655 7.885 1.667 5.804c.008-1.375.728-2.079 1-2.343l.022-.025.056-.057c1.196-1.195 2.018-1.687 2.803-1.67Zm-.016 1.25h-.007c-.374 0-.942.374-1.735 1.144l-.159.157h.002l-.037.039-.056.055c-.201.196-.619.604-.623 1.456-.007 1.193.778 3.407 4.553 7.182 3.758 3.756 5.969 4.55 7.165 4.55h.017c.853-.005 1.26-.423 1.455-.624.06-.06.108-.106.142-.134.83-.836 1.256-1.456 1.251-1.856-.005-.406-.51-.886-1.21-1.552-.222-.21-.464-.442-.719-.697-.661-.659-.987-.546-1.708-.293-.996.35-2.36.827-4.486-1.3C7.25 8.96 7.727 7.597 8.075 6.6c.251-.72.366-1.047-.295-1.709-.258-.258-.49-.503-.705-.728-.661-.695-1.139-1.198-1.543-1.204Zm7.174 1.714a4.294 4.294 0 0 1 3.41 3.41.625.625 0 1 1-1.226.24 3.05 3.05 0 0 0-2.423-2.423.624.624 0 1 1 .239-1.227Zm-.05-2.96a7.226 7.226 0 0 1 6.418 6.411.625.625 0 0 1-1.242.14 5.985 5.985 0 0 0-5.315-5.31.625.625 0 0 1-.551-.69.619.619 0 0 1 .69-.55Z" fill="#B0B0B2"/>
</svg>
