<svg width="46" height="47" fill="none" xmlns="http://www.w3.org/2000/svg">
  <circle cx="23" cy="23.043" r="22.5" fill="#18181B" stroke="url(#a)"/>
  <path d="M22.996 13.92c2.972 0 3.324.01 4.497.064a6.173 6.173 0 0 1 2.067.383 3.686 3.686 0 0 1 2.113 2.113c.245.662.374 1.36.383 2.066.053 1.174.064 1.526.064 4.498 0 2.971-.01 3.323-.064 4.497a6.176 6.176 0 0 1-.383 2.067 3.684 3.684 0 0 1-2.113 2.112 6.176 6.176 0 0 1-2.067.383c-1.173.053-1.525.065-4.497.065s-3.324-.011-4.497-.065a6.176 6.176 0 0 1-2.067-.383 3.684 3.684 0 0 1-2.112-2.112 6.176 6.176 0 0 1-.383-2.067c-.053-1.174-.065-1.526-.065-4.497 0-2.972.011-3.324.065-4.498a6.177 6.177 0 0 1 .383-2.066 3.684 3.684 0 0 1 2.112-2.113 6.173 6.173 0 0 1 2.067-.383c1.174-.053 1.526-.065 4.497-.065Zm0-2.006c-3.02 0-3.401.013-4.588.067a8.171 8.171 0 0 0-2.703.517 5.45 5.45 0 0 0-1.97 1.284 5.452 5.452 0 0 0-1.285 1.971 8.173 8.173 0 0 0-.517 2.703c-.053 1.186-.066 1.566-.066 4.587 0 3.02.013 3.401.067 4.588.018.924.193 1.838.517 2.703a5.45 5.45 0 0 0 1.284 1.971 5.452 5.452 0 0 0 1.971 1.284 8.173 8.173 0 0 0 2.703.517c1.187.053 1.566.067 4.588.067 3.023 0 3.401-.013 4.589-.067a8.173 8.173 0 0 0 2.702-.517 5.698 5.698 0 0 0 3.254-3.256 8.17 8.17 0 0 0 .517-2.703c.053-1.186.066-1.566.066-4.587 0-3.02-.013-3.401-.066-4.588a8.171 8.171 0 0 0-.518-2.703 5.45 5.45 0 0 0-1.284-1.97 5.45 5.45 0 0 0-1.97-1.285 8.168 8.168 0 0 0-2.703-.517c-1.187-.053-1.567-.066-4.588-.066Z" fill="#fff"/>
  <path d="M23 17.328a5.715 5.715 0 1 0 0 11.43 5.715 5.715 0 0 0 0-11.43Zm0 9.425a3.709 3.709 0 1 1 0-7.418 3.709 3.709 0 0 1 0 7.418ZM28.937 18.439a1.335 1.335 0 1 0 0-2.671 1.335 1.335 0 0 0 0 2.67Z" fill="#fff"/>
  <defs>
    <linearGradient id="a" x1="0" y1="23.043" x2="46" y2="23.043" gradientUnits="userSpaceOnUse">
      <stop stop-color="#0CBAF1"/>
      <stop offset="1" stop-color="#E95CE9"/>
    </linearGradient>
  </defs>
</svg>
