<svg width="20" height="21" fill="none" xmlns="http://www.w3.org/2000/svg">
  <path fill-rule="evenodd" clip-rule="evenodd" d="M10.208 1.709c3.79 0 6.875 3.107 6.875 6.927 0 4.696-5.38 9.323-6.875 9.323s-6.875-4.627-6.875-9.323c0-3.82 3.084-6.927 6.875-6.927Zm0 1.25c-3.102 0-5.625 2.547-5.625 5.677 0 3.983 4.687 7.863 5.625 8.07.938-.208 5.625-4.088 5.625-8.07 0-3.13-2.523-5.677-5.625-5.677Zm0 2.917a2.712 2.712 0 0 1 2.71 2.709 2.71 2.71 0 0 1-2.71 2.707A2.71 2.71 0 0 1 7.5 8.585a2.712 2.712 0 0 1 2.709-2.71Zm0 1.25a1.46 1.46 0 1 0 1.458 1.46 1.46 1.46 0 0 0-1.457-1.46Z" fill="#B0B0B2"/>
</svg>
