<svg width="46" height="47" fill="none" xmlns="http://www.w3.org/2000/svg">
  <circle cx="23" cy="23.043" r="22.5" fill="#18181B" stroke="url(#a)"/>
  <path d="M33.2 18.086a8.38 8.38 0 0 1-2.179.612c.765-.459 1.377-1.185 1.645-2.065-.727.42-1.53.727-2.41.918a3.812 3.812 0 0 0-2.753-1.186 3.754 3.754 0 0 0-3.748 3.748c0 .306.038.574.114.841a10.716 10.716 0 0 1-7.763-3.939c-.306.574-.497 1.186-.497 1.874 0 1.3.65 2.448 1.682 3.136a4.426 4.426 0 0 1-1.72-.459v.039c0 1.835 1.3 3.365 3.02 3.71-.305.076-.65.114-.994.114-.23 0-.497-.038-.726-.076.497 1.491 1.874 2.6 3.518 2.6-1.3.995-2.906 1.606-4.666 1.606-.306 0-.612 0-.88-.038a10.642 10.642 0 0 0 5.776 1.683c6.922 0 10.708-5.737 10.708-10.708v-.498a6.869 6.869 0 0 0 1.874-1.912Z" fill="#fff"/>
  <defs>
    <linearGradient id="a" x1="0" y1="23.043" x2="46" y2="23.043" gradientUnits="userSpaceOnUse">
      <stop stop-color="#0CBAF1"/>
      <stop offset="1" stop-color="#E95CE9"/>
    </linearGradient>
  </defs>
</svg>
