<svg width="22" height="20" fill="none" xmlns="http://www.w3.org/2000/svg">
  <path fill-rule="evenodd" clip-rule="evenodd" d="M16.159.043c3.33 0 5.84 2.717 5.84 6.32v6.868c0 1.844-.651 3.51-1.836 4.692-1.063 1.059-2.442 1.62-3.988 1.62H6.322c-1.543 0-2.921-.56-3.985-1.62C1.152 16.741.5 15.075.5 13.231V6.363C.5 2.76 3.01.043 6.34.043h9.819Zm0 1.5H6.34C3.826 1.543 2 3.57 2 6.363v6.868c0 1.443.496 2.732 1.396 3.629.776.775 1.789 1.183 2.929 1.183h9.834c.002-.002.01 0 .016 0 1.14 0 2.153-.408 2.929-1.183.9-.897 1.396-2.186 1.396-3.629V6.363c0-2.793-1.826-4.82-4.341-4.82Zm1.576 4.629a.75.75 0 0 1-.11 1.055l-4.443 3.612a3.042 3.042 0 0 1-3.799.006L4.898 7.229a.751.751 0 0 1 .94-1.168l4.482 3.612a1.544 1.544 0 0 0 1.923-.004l4.436-3.606a.75.75 0 0 1 1.056.109Z" fill="#fff"/>
</svg>
